<svg xmlns="http://www.w3.org/2000/svg" version="1.1" xmlns:xlink="http://www.w3.org/1999/xlink" xmlns:svgjs="http://svgjs.dev/svgjs" width="1000" height="1000" viewBox="0 0 1000 1000"><rect width="1000" height="1000" fill="#ffffff"></rect><g transform="matrix(0.7,0,0,0.7,149.57575757575756,282.1265587044535)"><svg viewBox="0 0 396 247" data-background-color="#ffffff" preserveAspectRatio="xMidYMid meet" height="623" width="1000" xmlns="http://www.w3.org/2000/svg" xmlns:xlink="http://www.w3.org/1999/xlink"><g id="tight-bounds" transform="matrix(1,0,0,1,0.2400000000000091,-0.09999999999999432)"><svg viewBox="0 0 395.52 247.2" height="247.2" width="395.52"><g><svg></svg></g><g><svg viewBox="0 0 395.52 247.2" height="247.2" width="395.52"><g transform="matrix(1,0,0,1,75.54432,102.51668721809705)"><svg viewBox="0 0 244.43135999999998 42.1666255638059" height="42.1666255638059" width="244.43135999999998"><g><svg viewBox="0 0 244.43135999999998 42.1666255638059" height="42.1666255638059" width="244.43135999999998"><g><svg viewBox="0 0 244.43135999999998 42.1666255638059" height="42.1666255638059" width="244.43135999999998"><g><svg viewBox="0 0 244.43135999999998 42.1666255638059" height="42.1666255638059" width="244.43135999999998"><g><svg viewBox="0 0 244.43135999999998 42.1666255638059" height="42.1666255638059" width="244.43135999999998"><g><svg viewBox="0 0 244.43135999999998 42.1666255638059" height="42.1666255638059" width="244.43135999999998"><g transform="matrix(1,0,0,1,0,0)"><svg width="244.43135999999998" viewBox="3 -37.79999923706055 289.5299987792969 49.94999694824219" height="42.1666255638059" data-palette-color="#152232"><path d="M20.95 0L4 0 4-27.35 3-32.35 4-35.4 20.95-35.4Q24.5-35.4 27.83-34.73 31.15-34.05 33.77-32.2 36.4-30.35 37.95-26.9 39.5-23.45 39.5-17.95L39.5-17.95Q39.5-12.45 37.93-8.93 36.35-5.4 33.7-3.45 31.05-1.5 27.75-0.75 24.45 0 20.95 0L20.95 0ZM15.1-25.9L15.1-9.5 18.9-9.5Q21.85-9.5 23.88-10.15 25.9-10.8 26.95-12.63 28-14.45 28-17.95L28-17.95Q28-21.5 26.93-23.18 25.85-24.85 23.83-25.38 21.8-25.9 18.9-25.9L18.9-25.9 15.1-25.9ZM71.45 0L45.5 0 44.5-3 45.5-8 45.5-35.4 56.5-35.4 56.5-16.35 56-9.5 57-9.5 65.95-10 69.5-10.5 73.9-3.2 71.45 0ZM88.45 0L77.4 0 77.4-27.4 76.9-32.4 77.4-35.4 88.45-35.4 88.45 0ZM133.39 0L107.44 0 106.44-3 107.44-8 107.44-35.4 118.44-35.4 118.44-16.35 117.94-9.5 118.94-9.5 127.89-10 131.44-10.5 135.84-3.2 133.39 0ZM151.39-31.45L143.99-25.05 136.59-31.45 143.99-37.8 151.39-31.45ZM149.44 0L138.44 0 138.44-16.55 137.39-20.55 138.39-23.6 149.44-23.6 149.44 0ZM171.19 0.5L171.19 0.5Q168.94 0.5 167.61 0.08 166.29-0.35 165.71-0.78 165.14-1.2 165.14-1.2L165.14-1.2 165.14 0.05 154.14 0.05 154.14-27.35 153.09-32.35 154.14-35.35 165.14-35.35 165.14-27.3 164.64-21.65 165.14-21.4Q165.79-22.05 166.51-22.65 167.24-23.25 168.34-23.68 169.44-24.1 171.19-24.1L171.19-24.1Q175.64-24.1 177.91-21.25 180.19-18.4 180.19-12.25L180.19-12.25Q180.19-7.65 178.91-4.83 177.64-2 175.59-0.75 173.54 0.5 171.19 0.5ZM166.99-7.95L166.99-7.95Q168.14-7.95 168.66-8.88 169.19-9.8 169.19-11.35L169.19-11.35Q169.19-13.25 168.26-14.33 167.34-15.4 165.64-15.4L165.64-15.4 165.14-14.9 165.14-8.6Q165.14-8.6 165.69-8.28 166.24-7.95 166.99-7.95ZM195.13 0L184.23 0 184.23-15.65 183.18-20.65 184.23-23.65 193.03-23.65 194.03-22.5Q194.03-22.5 194.61-22.93 195.18-23.35 196.23-23.75 197.28-24.15 198.68-24.15L198.68-24.15Q199.68-24.15 200.68-24 201.68-23.85 202.23-23.6L202.23-23.6 207.48-18.85 203.23-11.95 196.63-15.7 195.13-15.2 195.13 0ZM214.98 0.5L214.98 0.5Q211.63 0.5 209.56-1.07 207.48-2.65 207.48-6.6L207.48-6.6Q207.48-10.25 209.91-12.13 212.33-14 216.48-14L216.48-14Q218.73-14 220.08-13.58 221.43-13.15 222.13-12.75L222.13-12.75 222.48-13Q222.48-14.55 221.93-15.33 221.38-16.1 219.28-16.1L219.28-16.1Q217.43-16.1 215.51-15.73 213.58-15.35 211.88-14.78 210.18-14.2 208.98-13.55L208.98-13.55 208.98-22.55Q209.78-22.8 211.53-23.15 213.28-23.5 215.73-23.78 218.18-24.05 220.98-24.05L220.98-24.05Q225.68-24.05 228.43-22.93 231.18-21.8 232.36-19.68 233.53-17.55 233.53-14.6L233.53-14.6 233.53-7.95 234.53-2.9 233.53 0.05 222.98 0.05 222.98-2.4 222.48-2.65Q221.68-1.5 219.76-0.5 217.83 0.5 214.98 0.5ZM220.63-6.05L220.63-6.05Q221.38-6.05 221.88-6.3 222.38-6.55 222.48-6.6L222.48-6.6 222.48-7.7Q222.48-8.45 222.03-9 221.58-9.55 220.68-9.55L220.68-9.55Q219.88-9.55 219.18-9.13 218.48-8.7 218.48-7.65L218.48-7.65Q218.48-6.05 220.63-6.05ZM249.68 0L238.78 0 238.78-15.65 237.73-20.65 238.78-23.65 247.58-23.65 248.58-22.5Q248.58-22.5 249.15-22.93 249.73-23.35 250.78-23.75 251.83-24.15 253.23-24.15L253.23-24.15Q254.23-24.15 255.23-24 256.23-23.85 256.78-23.6L256.78-23.6 262.03-18.85 257.78-11.95 251.18-15.7 249.68-15.2 249.68 0ZM270.08 12.15L270.08 12.15 261.03 9.15 263.03 0.7 273.03 2.7Q274.78 2.7 275.55 1.95 276.33 1.2 276.63-0.05L276.63-0.05 270.48-0.05 263.98-17.15 263.03-23.65 274.53-23.65 277.28-8.15 278.28-8.15 281.03-23.65 292.53-23.65Q292.53-23.65 292.15-22.08 291.78-20.5 291.13-17.9 290.48-15.3 289.63-12.18 288.78-9.05 287.88-5.88 286.98-2.7 286.08-0.05L286.08-0.05Q284.03 6.15 280.03 9.15 276.03 12.15 270.08 12.15Z" opacity="1" transform="matrix(1,0,0,1,0,0)" fill="#000000" class="undefined-text-0" data-fill-palette-color="primary" id="text-0"></path></svg></g></svg></g></svg></g></svg></g><g></g></svg></g></svg></g></svg></g><g><path d="M79.551 92.562A122.216 122.216 0 0 1 315.969 92.562L312.166 92.562A118.413 118.413 0 0 0 83.354 92.562L79.551 92.562M79.551 154.638A122.216 122.216 0 0 0 315.969 154.638L312.166 154.638A118.413 118.413 0 0 1 83.354 154.638L79.551 154.638" fill="#5ebc67" stroke="transparent" data-fill-palette-color="tertiary"></path></g></svg></g><defs></defs></svg><rect width="395.52" height="247.2" fill="none" stroke="none" visibility="hidden"></rect></g></svg></g></svg>